<svg width="53" height="53" viewBox="0 0 53 53" fill="none" xmlns="http://www.w3.org/2000/svg">
<path d="M43.5978 27.56C43.1632 27.56 42.771 27.295 42.612 26.8922C41.6421 24.4542 39.84 22.2229 37.3968 20.4474C36.9569 20.1241 36.8297 19.5252 37.1052 19.0535C37.6882 18.0572 38.4197 17.0872 39.0661 16.3135C37.4285 16.34 35.2131 16.6156 33.7714 17.7763C33.4747 18.0096 33.0824 18.0731 32.7273 17.9406C30.0932 16.9389 27.2842 16.4301 24.3798 16.4301C13.8593 16.4301 5.2998 23.0869 5.2998 31.2701C5.2998 34.6356 6.7202 37.8103 9.41265 40.455C9.68817 40.7305 9.79428 41.128 9.68817 41.5045L7.76432 48.2302H11.9194L12.9582 44.5944C13.0431 44.2976 13.255 44.0485 13.5412 43.9214C13.8274 43.7942 14.1507 43.7942 14.4316 43.9319C17.421 45.3576 20.8605 46.1102 24.3797 46.1102C27.883 46.1102 31.3227 45.3523 34.3225 43.9213C34.6034 43.7888 34.932 43.7835 35.2129 43.9108C35.4991 44.038 35.7111 44.2871 35.7958 44.5892L36.84 48.2302H40.9951L39.0712 41.4939C38.9653 41.123 39.0712 40.7201 39.3468 40.4497C40.8255 38.9922 41.9226 37.3757 42.6117 35.6479C42.7705 35.2451 43.1629 34.9801 43.5975 34.9801H47.6996V27.5601L43.5978 27.56ZM28.09 23.32H19.61C19.0271 23.32 18.55 22.843 18.55 22.26C18.55 21.6771 19.0271 21.2 19.61 21.2H28.09C28.673 21.2 29.15 21.6771 29.15 22.26C29.15 22.843 28.673 23.32 28.09 23.32ZM21.2 7.42002C21.2 5.95718 22.3872 4.77002 23.85 4.77002C25.3129 4.77002 26.5 5.95718 26.5 7.42002C26.5 8.88286 25.3129 10.07 23.85 10.07C22.3872 10.07 21.2 8.88286 21.2 7.42002Z" fill="#005494"/>
</svg>
