<svg width="45" height="45" viewBox="0 0 45 45" fill="none" xmlns="http://www.w3.org/2000/svg">
<path d="M38.22 32.0284C39.4057 31.0515 40.368 29.8315 41.0423 28.4511C41.7166 27.0706 42.0869 25.5616 42.1285 24.0261C42.1285 20.2322 39.862 16.7139 35.908 14.3406C33.6186 9.3778 27.2864 5.79993 19.8483 5.79993C10.4864 5.79993 2.87015 11.4643 2.87015 18.4273C2.91263 19.9869 3.28895 21.5194 3.97407 22.9213C4.65905 24.3232 5.63667 25.5618 6.84106 26.5535C7.01889 27.1461 6.38859 29.9826 4.50991 32.1643C4.37573 32.3176 4.29165 32.5082 4.26894 32.7106C4.24624 32.9132 4.28593 33.1177 4.38291 33.2969C4.4708 33.4611 4.60176 33.598 4.76173 33.6933C4.92169 33.7883 5.10451 33.8381 5.29067 33.837C5.33682 33.8371 5.38296 33.834 5.42866 33.828C7.82484 33.5539 10.151 32.8461 12.2938 31.7393C15.4485 34.7028 20.3015 36.4624 25.4105 36.4624C27.1992 36.4658 28.982 36.2516 30.719 35.8245C30.8069 35.8804 30.9244 35.9601 31.0328 36.0335C33.5786 37.786 36.5232 38.8718 39.5974 39.1914C39.6434 39.1974 39.6899 39.2005 39.7362 39.2004C39.921 39.2012 40.1027 39.1519 40.2616 39.0575C40.4205 38.9631 40.5508 38.8273 40.6385 38.6644C40.7352 38.4861 40.775 38.2823 40.7526 38.0807C40.7304 37.879 40.6469 37.6888 40.5134 37.5359C38.674 35.4009 38.0499 32.6163 38.2201 32.0283L38.22 32.0284ZM7.82213 25.5442C6.75455 24.6823 5.88519 23.6004 5.2733 22.3724C4.66145 21.1443 4.32144 19.7988 4.27617 18.4274C4.27617 12.2399 11.2613 7.20629 19.848 7.20629C28.434 7.20629 35.4192 12.2399 35.4192 18.4274C35.4192 24.6145 28.434 29.6482 19.848 29.6482H19.8482C18.0734 29.6521 16.3053 29.4306 14.5862 28.989C14.1825 28.8829 13.8831 29.0876 13.3399 29.4563C11.2027 30.9337 8.75629 31.9038 6.18717 32.2924C7.85093 29.9239 8.91589 26.5027 7.82209 25.5442H7.82213ZM31.8218 34.8697C31.2821 34.5038 30.9792 34.3039 30.5859 34.408V34.4079C28.8951 34.8424 27.1562 35.0603 25.4105 35.0565C20.8171 35.0565 16.4645 33.5508 13.562 30.9964C13.7804 30.8556 13.9707 30.7275 14.1284 30.6205C14.2404 30.5447 14.3619 30.4626 14.4511 30.4056C16.2172 30.8401 18.0295 31.058 19.8481 31.0546C29.2093 31.0546 36.8255 25.3902 36.8255 18.4276C36.8252 17.7929 36.7614 17.1596 36.6348 16.5377C39.2512 18.5693 40.7223 21.2218 40.7223 24.0264C40.6778 25.3742 40.3435 26.6965 39.742 27.9035C39.1405 29.1106 38.2861 30.1737 37.2368 31.0209C36.1602 31.9647 37.1983 35.3206 38.8291 37.6543V37.6541C36.3124 37.2699 33.9162 36.3177 31.8219 34.8699L31.8218 34.8697Z" fill="black"/>
<path d="M29.5346 19.4197L27.2199 15.3345C27.5102 15.2249 27.7877 15.084 28.0475 14.9144C28.2574 14.7762 28.3777 14.5367 28.363 14.2858C28.3482 14.035 28.2009 13.8112 27.9764 13.6984C27.7519 13.5858 27.4842 13.6014 27.2743 13.7396C26.8877 14.0081 26.4307 14.1572 25.9601 14.168C25.1954 14.0419 24.4977 13.6559 23.9846 13.0752C23.2457 12.4319 22.3943 11.7023 21.2434 11.7916L21.2435 11.7915C21.0266 11.8115 20.8133 11.8592 20.6084 11.9328V11.2498C20.6084 10.9986 20.4743 10.7665 20.2568 10.6408C20.0393 10.5153 19.7712 10.5153 19.5537 10.6408C19.3361 10.7665 19.2021 10.9986 19.2021 11.2498V11.9765C18.9632 11.878 18.7109 11.8156 18.4536 11.7915C17.2959 11.7059 16.4513 12.4317 15.7124 13.0751L15.7125 13.0752C15.1995 13.6557 14.5022 14.0417 13.7378 14.168C13.2652 14.1655 12.8053 14.0157 12.4221 13.7393C12.2121 13.6019 11.945 13.5869 11.7209 13.6999C11.4969 13.8128 11.35 14.0365 11.3355 14.287C11.321 14.5374 11.4409 14.7767 11.6504 14.9148C11.9101 15.0841 12.1874 15.2247 12.4776 15.3343L10.1626 19.42V19.4198C10.0045 19.4494 9.86171 19.5329 9.75845 19.6561C9.65518 19.7793 9.59805 19.9346 9.59659 20.0953C9.62969 21.1151 10.0655 22.0803 10.8084 22.7794C11.5515 23.4787 12.5414 23.8551 13.5613 23.8262C14.5813 23.8551 15.5711 23.4787 16.314 22.7794C17.0571 22.0802 17.493 21.1151 17.526 20.0953C17.5246 19.9347 17.4674 19.7796 17.3645 19.6564C17.2613 19.5332 17.1187 19.4497 16.9607 19.4201L14.6879 15.4099V15.4097C15.4156 15.1191 16.078 14.6861 16.6361 14.1359C17.2445 13.6065 17.7787 13.1484 18.3479 13.1938V13.1937C18.6663 13.2357 18.9644 13.3739 19.2021 13.5898V21.0766C18.912 21.2105 18.6662 21.4244 18.4937 21.6933C18.3211 21.9621 18.2291 22.2747 18.2284 22.5942V24.6091H17.0871C16.836 24.6091 16.6038 24.7431 16.4783 24.9606C16.3526 25.1782 16.3526 25.4462 16.4783 25.6638C16.6039 25.8813 16.8361 26.0153 17.0871 26.0153H22.678C22.9292 26.0153 23.1614 25.8813 23.2869 25.6638C23.4124 25.4462 23.4124 25.1782 23.2869 24.9606C23.1614 24.7431 22.9292 24.6091 22.678 24.6091H21.5827V22.5942C21.582 22.2746 21.4898 21.962 21.3171 21.6932C21.1446 21.4242 20.8986 21.2104 20.6085 21.0766V13.4994C20.8225 13.3309 21.0788 13.2252 21.3494 13.1937C21.9406 13.1446 22.4542 13.6068 23.0612 14.1357V14.1359C23.6193 14.6861 24.2817 15.1191 25.0096 15.4095L22.7373 19.4198H22.7372C22.5793 19.4494 22.4363 19.5329 22.333 19.6561C22.2298 19.7793 22.1726 19.9345 22.1713 20.0952C22.2539 21.4545 23.0272 22.6767 24.22 23.3336C25.4129 23.9904 26.8591 23.9904 28.0518 23.3336C29.2445 22.6767 30.0179 21.4545 30.1005 20.0952C30.0992 19.9345 30.0419 19.7793 29.9387 19.6561C29.8355 19.5327 29.6926 19.4492 29.5345 19.4198L29.5346 19.4197ZM15.3285 19.392H11.795L13.5614 16.2744L15.3285 19.392ZM13.5615 22.4199C13.0375 22.4331 12.5223 22.2845 12.0858 21.9943C11.6494 21.7043 11.3131 21.2865 11.1225 20.7983H16.0005C15.81 21.2865 15.4736 21.7043 15.0372 21.9943C14.6006 22.2845 14.0855 22.433 13.5615 22.4199ZM19.635 24.6092V22.5944C19.6347 22.5221 19.6629 22.453 19.7138 22.4019C19.7646 22.3508 19.8337 22.322 19.9058 22.322C19.9779 22.322 20.047 22.3508 20.0979 22.4019C20.1487 22.453 20.1771 22.5221 20.1767 22.5944V24.6092H19.635ZM27.9026 19.3922H24.3695L26.136 16.2746L27.9026 19.3922ZM26.136 22.4201C25.6122 22.4332 25.0968 22.2847 24.6605 21.9945C24.2239 21.7045 23.8876 21.2867 23.697 20.7985H28.575C28.3846 21.2867 28.0481 21.7044 27.6117 21.9945C27.1754 22.2847 26.66 22.4332 26.136 22.4201Z" fill="black"/>
</svg>
