<svg width="54" height="54" viewBox="0 0 54 54" fill="none" xmlns="http://www.w3.org/2000/svg">
<path d="M16.3624 8.55582C15.3394 8.55582 14.5104 9.38481 14.5104 10.4078V14.2617C11.2092 14.2617 8.55371 16.9195 8.55371 20.2206V39.4923C8.55371 42.7934 11.2094 45.4512 14.5104 45.4512H39.4899C42.791 45.4512 45.4488 42.7934 45.4488 39.4923V20.2206C45.4488 16.9194 42.791 14.2617 39.4899 14.2617V10.4078C39.4899 9.38481 38.6588 8.55582 37.6336 8.55582C36.6106 8.55582 35.7837 9.38481 35.7816 10.4078V14.2617L18.2172 14.2596V10.4057C18.2172 9.3827 17.3861 8.55371 16.3631 8.55371L16.3624 8.55582ZM16.3645 21.0289H37.6378H37.6357C38.6587 21.0289 39.4877 21.8579 39.4877 22.8788C39.4877 23.3703 39.2936 23.8428 38.9477 24.1908C38.5997 24.5389 38.1292 24.7351 37.6357 24.7351L16.3624 24.7309H16.3645C15.3415 24.7288 14.5125 23.9019 14.5125 22.8788C14.5125 21.8579 15.3415 21.0289 16.3645 21.0289ZM15.7739 28.2789H17.7736C18.4718 28.2789 19.035 28.8421 19.035 29.5403V31.54C19.035 32.2382 18.4718 32.8014 17.7736 32.8014H15.7739C15.0756 32.8014 14.5125 32.2382 14.5125 31.54V29.5403C14.5125 28.842 15.0757 28.2789 15.7739 28.2789ZM22.5914 28.2789H24.5911C25.2893 28.2789 25.8525 28.8421 25.8525 29.5403V31.54C25.8525 32.2382 25.2893 32.8014 24.5911 32.8014H22.5914C21.8931 32.8014 21.33 32.2382 21.33 31.54V29.5403C21.33 28.842 21.8932 28.2789 22.5914 28.2789ZM29.4089 28.2789H31.4086C32.1068 28.2789 32.67 28.8421 32.67 29.5403V31.54C32.67 32.2382 32.1068 32.8014 31.4086 32.8014H29.4089C28.7106 32.8014 28.1475 32.2382 28.1475 31.54V29.5403C28.1475 28.842 28.7107 28.2789 29.4089 28.2789ZM36.2264 28.2789H38.2261C38.9243 28.2789 39.4875 28.8421 39.4875 29.5403V31.54C39.4875 32.2382 38.9243 32.8014 38.2261 32.8014H36.2264C35.5281 32.8014 34.965 32.2382 34.965 31.54V29.5403C34.965 28.842 35.5282 28.2789 36.2264 28.2789ZM15.7716 35.3898H17.7713C18.4695 35.3898 19.0327 35.953 19.0327 36.6512V38.6509C19.0327 39.3491 18.4695 39.9123 17.7713 39.9123H15.7716C15.0734 39.9123 14.5102 39.3491 14.5102 38.6509V36.6512C14.5102 35.9529 15.0734 35.3898 15.7716 35.3898ZM22.5891 35.3898H24.5888C25.287 35.3898 25.8502 35.953 25.8502 36.6512V38.6509C25.8502 39.3491 25.287 39.9123 24.5888 39.9123H22.5891C21.8909 39.9123 21.3277 39.3491 21.3277 38.6509V36.6512C21.3277 35.9529 21.8909 35.3898 22.5891 35.3898ZM29.4066 35.3898H31.4084C32.1066 35.3898 32.6698 35.953 32.6698 36.6512V38.6509C32.6698 39.3491 32.1066 39.9123 31.4084 39.9123H29.4087C28.7105 39.9123 28.1473 39.3491 28.1473 38.6509V36.6512C28.1473 35.9529 28.7105 35.3898 29.4087 35.3898H29.4066ZM36.2241 35.3898H38.2238C38.922 35.3898 39.4852 35.953 39.4852 36.6512V38.6509C39.4852 39.3491 38.922 39.9123 38.2238 39.9123H36.2241C35.5259 39.9123 34.9627 39.3491 34.9627 38.6509V36.6512C34.9627 35.9529 35.5259 35.3898 36.2241 35.3898Z" fill="#005494"/>
</svg>
