<svg width="24" height="24" viewBox="0 0 24 24" fill="none" xmlns="http://www.w3.org/2000/svg">
<path d="M20.25 3.75H3.75C2.50782 3.75 1.5 4.75782 1.5 6V18C1.5 19.2422 2.50782 20.25 3.75 20.25H20.25C21.4922 20.25 22.5 19.2422 22.5 18V6C22.5 4.75782 21.4922 3.75 20.25 3.75ZM21 6.2532V17.4L16.3348 10.4026L21 6.2532ZM10.65 13.05C11.0344 13.3378 11.5022 13.4934 11.9831 13.4925C12.4941 13.4897 12.9919 13.3209 13.3987 13.0106L15.2034 11.4066L20.0998 18.7502H3.89982L8.79622 11.405L10.65 13.05ZM19.8752 5.25L12.45 11.85C12.2016 12.0394 11.8622 12.0553 11.5969 11.8894L4.12968 5.24998L19.8752 5.25ZM7.6662 10.3988L3.0004 17.4V6.2532L7.6662 10.3988Z" fill="black"/>
</svg>
