<svg width="47" height="47" viewBox="0 0 47 47" fill="none" xmlns="http://www.w3.org/2000/svg">
<path d="M24.1369 2.68967L26.004 6.66274L30.359 7.2117C30.7445 7.2576 31.0181 7.61011 30.9703 7.99382C30.9483 8.16273 30.8693 8.31144 30.7537 8.41976L27.55 11.4252L28.3743 15.7378C28.4477 16.1179 28.1962 16.4887 27.8162 16.5622C27.6491 16.5934 27.4857 16.564 27.3443 16.4869L23.4981 14.3682L19.6518 16.4869C19.3121 16.6723 18.8825 16.5493 18.6952 16.2097C18.6126 16.0609 18.5906 15.8939 18.6218 15.7378L19.4461 11.4252L16.2424 8.41976C15.9597 8.15355 15.9468 7.70924 16.2131 7.42653C16.3379 7.29434 16.5031 7.22091 16.672 7.20622L20.9937 6.66278L22.8608 2.68971C23.0261 2.33905 23.4428 2.18666 23.7935 2.3519C23.9477 2.42534 24.0634 2.54651 24.1313 2.68971L24.1369 2.68967ZM31.2785 35.52V44.7179H44.0147V35.52H31.2785ZM17.1323 27.5981V44.7202H29.8685V20.6182H17.1323V27.5981ZM15.7223 28.3215H2.98608V44.7202H15.7223V28.3215Z" fill="#005494"/>
</svg>
