<svg width="26" height="26" viewBox="0 0 26 26" fill="none" xmlns="http://www.w3.org/2000/svg">
<path d="M17.818 22.4813C17.0787 22.9475 16.2794 23.3294 15.4364 23.6148C14.3264 23.9895 13.1411 24.1957 11.9121 24.2028L11.8522 24.2038C8.75952 24.2038 5.95845 22.9495 3.93132 20.9224C1.90419 18.8953 0.649902 16.0953 0.649902 13.0015C0.649902 9.90794 1.90421 7.10774 3.93132 5.08061C5.95843 3.05348 8.75952 1.79919 11.8522 1.79919C14.9458 1.79919 17.746 3.0535 19.7742 5.08061C21.8014 7.10779 23.0545 9.90773 23.0545 13.0015C23.0545 13.6871 22.9906 14.3665 22.8677 15.0348C22.7905 15.4593 22.6889 15.8727 22.567 16.2749L24.8572 17.1249C25.2482 17.2702 25.4463 17.7049 25.301 18.0959C25.236 18.2706 25.1131 18.4067 24.9628 18.4909L23.5135 19.3085L24.7048 20.5008C25.0004 20.7964 25.0004 21.2768 24.7048 21.5733L22.7203 23.5579C22.4248 23.8534 21.9444 23.8534 21.6488 23.5579L20.4565 22.3655L19.6409 23.8159C19.4368 24.1805 18.9747 24.3105 18.6111 24.1063C18.4313 24.0058 18.3084 23.8433 18.2556 23.6595L17.8189 22.4823L17.818 22.4813ZM21.1463 15.7469C21.2427 15.4239 21.3209 15.0949 21.3819 14.7628C21.4855 14.2011 21.5393 13.6131 21.5393 13.0017C21.5393 12.0368 21.3981 11.1045 21.1351 10.2249H17.0555C17.1601 11.1125 17.2159 12.0428 17.2159 13.0017C17.2159 13.2678 17.2088 13.5775 17.1966 13.9259L17.1814 14.2742L21.1475 15.7469H21.1463ZM16.4611 18.8264C16.1361 19.9771 15.7176 20.9866 15.2291 21.8032C15.154 21.9291 15.0758 22.051 14.9975 22.1678C15.8111 21.8885 16.5768 21.5025 17.2786 21.0272L16.461 18.8254L16.4611 18.8264ZM15.3286 15.7774L14.959 14.7811C14.8137 14.3901 15.0118 13.9554 15.4028 13.8102C15.4972 13.7747 15.5947 13.7604 15.6892 13.7625C15.6953 13.5431 15.6993 13.2902 15.6993 13.0008C15.6993 12.0359 15.6404 11.1046 15.5297 10.224H8.17346C8.06276 11.1045 8.00385 12.0358 8.00385 13.0008C8.00385 13.9657 8.06276 14.8969 8.17346 15.7776L15.3286 15.7774ZM6.64809 10.2241H2.56848C2.30542 11.1036 2.16426 12.0359 2.16426 13.0009C2.16426 13.9658 2.30543 14.898 2.56848 15.7777H6.64809C6.54348 14.89 6.48763 13.9597 6.48763 13.0009C6.48763 12.042 6.54348 11.1118 6.64809 10.2241ZM15.2799 17.293H8.42346C8.63979 18.3371 8.93432 19.2786 9.28777 20.0811C9.99769 21.6909 10.9087 22.6872 11.8511 22.6872C12.5844 22.6872 13.3076 22.0707 13.9322 21.0266C14.505 20.0709 14.9711 18.7882 15.2809 17.2932L15.2799 17.293ZM6.88058 17.293H3.16431C3.63556 18.2437 4.25813 19.1069 5.00056 19.8493C6.03142 20.8801 7.29376 21.6794 8.70253 22.1639C8.41003 21.7302 8.1419 21.2366 7.90121 20.6902C7.47262 19.7173 7.12426 18.5666 6.88051 17.2931L6.88058 17.293ZM15.2777 8.70783C15.0614 7.66376 14.7679 6.72228 14.4134 5.91976C13.7035 4.31 12.7925 3.3137 11.85 3.3137C10.9076 3.3137 9.9965 4.31002 9.28664 5.91976C8.93321 6.72108 8.63969 7.66358 8.42233 8.70783H15.2777ZM6.88058 8.70783C7.12433 7.43424 7.47268 6.28246 7.90229 5.31071C8.14298 4.7643 8.41111 4.27071 8.70361 3.83703C7.29393 4.32046 6.03254 5.12078 5.00164 6.15168C4.25921 6.89411 3.63664 7.75738 3.16539 8.70792L6.88058 8.70783ZM14.9986 3.83695C15.2911 4.27063 15.5593 4.76422 15.8 5.31063C16.2296 6.28359 16.5779 7.43431 16.8217 8.70774H20.5379C20.0667 7.7561 19.4441 6.89383 18.7017 6.15151C17.6708 5.12065 16.4085 4.32135 14.9997 3.83686L14.9986 3.83695Z" fill="black"/>
</svg>
